<mxfile host="65bd71144e">
    <diagram id="BjDNVOvEGapqLV46W61A" name="ページ1">
        <mxGraphModel dx="830" dy="771" grid="1" gridSize="10" guides="1" tooltips="1" connect="0" arrows="1" fold="1" page="1" pageScale="1" pageWidth="827" pageHeight="1169" background="#ffffff" math="0" shadow="0">
            <root>
                <mxCell id="0"/>
                <mxCell id="1" parent="0"/>
                <mxCell id="2" value="" style="shape=image;imageAspect=0;aspect=fixed;verticalLabelPosition=bottom;verticalAlign=top;image=data:image/png,iVBORw0KGgoAAAANSUhEUgAAAlAAAAFDCAYAAAD1SDDtAAAABHNCSVQICAgIfAhkiAAAABl0RVh0U29mdHdhcmUAZ25vbWUtc2NyZWVuc2hvdO8Dvz4AAAAzaVRYdENyZWF0aW9uIFRpbWUAAAAAADIwMjPlubQwMeaciDE45pelIDA25pmCMTDliIYyNOenkrtySfIAABotSURBVHic7d1tbpw8owZgirqiaPa/AjRL4jk/3kNKCDAYbPDHdUlV0yRlwGD7xhj4M47jf91N+r7//nocx7s+Fqjc1LY83a7M27iuS7s+Kbe57/tuGIau67ru9Xp9fz/VZ6Va9nz5KT/jqJzWJVe51OUj+s+/AkBuxnEsopPhJ/ts2/IEJHdlrS2QtdIaQJ7XWhBUR7aVdhzYk0BUfd//+EPZpkt5pSutcyZ/f59eAaAu846q5QBVS4c9nwMF/NNu6waQUMvhEVpwWw3XmAAtqWUECu5SWk64ZW1LKxTgvKdu1RZYgDslTzZTYzoMw4/JiEIV1OmpIKNNAe6UrMWZ34GzdReHBg+IJYcRqBpuydcuwzFJ7sKbV8BleFp7ui1ATUoPUfC0T0E+hzoW/VRjLzzNTT/zrBggBu0ItCOH+h51DY6Gp7XfyaEwgHLlcEZKfhwXpJIktYQ8uVaIAiAlIaoM0xzCtT/z35n//aQoieXIhHGAlJyAQZ2WdTuH8NR1ESaRh162WzOfWD4tL5cCAsqgzUhL+fKUXI+9S6dsKc/4nE0CR2grgCcEtzxTY7VstGJcunP5DwiV69kpULfDAWo+z2n5qoaYwcekcgAgd4cTytpZ3jAM3fv9jv5QzPlrX4QoYI82AnhCUMuzDFFTcEp96U0DCQDkJDiZ3DnfwOU8KJc6C/+oD/W5vEdfr1f39fUVY11WCVEAlM7NDvU5lUiWB0Lf90lfDmxOFACQk9Np5Mk0LUQBUBL9Vn0u7dGtSeWpGIkCAHJwOYXcHaK6rhOigCxNz8vTNkH9otTyJ0LUREMFdF0nuETkrRDwWbTWRogCajEfSQr5E2MZe8u8y53tN5TqzziO/8VcYIp35O2ZV3S3icKz+r7/rofzr1N/5lyMz2z9pGzebqcOUymPkeVrx56W2/pwzd/YCxzH8cdB8vX11b3f79gf820Yhu8KfleDDdRt2Y4d9dSlr9frlTz0nC2TT1oPq5Qr+gjUZC1ppwxSRqLgeU+PQD1R9+ef3/rcoakdXh4DpYakmMdTipFSnpUsQHXd74ZleZYUmxAFz2oxQM3XofUAdcbZN1msBZKtY+FKgLt6TG19tj7quBzq+Jrol/Dm5gd06vDUdS7nwZNKHWW4qtXtftpa+77V5scKUzHdtR7zExriSl6i8wP37js7HDBwHycs5K7FPiHm3Zw51PGcHleSdARqshyJGscx2XyoaZTLSBTcK6RRy3VInrpNfdGdx9zaCFCKz78jVNwZXEqYO3dLgOq6n4Vxx3wBl/PgXmcbPPUTriu1Du3daLD2/ZyC1W0Bquue3XCNNORhagPmZ+Yl18+cGnT2PbmfSj2+U5vKJaR8cinL24+mO+dEzV8+3HVtXv+Gu8xHmLfq2jI8zb8utX6Wut5QgnEcf/zJySM1fxmizt7GeobGDtJbuzy/V/dKD1Hkr+RRTvL0WGu1vK005WjUsjHXSMM9lvMe984iSw9ROue8udRKbI8eTXc2OMMwZPksEKjN1glLSH0vsX6mfNMCcQi5xPR4K+U5UVCHqS6/Xq9fdfloxzUfocrpeS9H3N1+Ea6k44n8ZXE0pZwT9alRU6EgrTNn/Xf9H4Czbn2MwZ7lc6JiPWxzWu4wDLt3Bml84bqY80ymZe3Vz9xOgJYnbPN3gB59ndW0jPmz7NYsf758iPCZ5+zd8cqt5Tqv7d+1dyrGaKfNgyKmpC8TPmN5cF9tBL6+vg4/iEuIgjjOzHs6u6ynn2quQ/5pGRbXvp7a5b39tReizs6re+JJ5NQruwDVdT8bpKsBam8uhhAFZdjrMGOGtStSBKlle1X6nYpPWZ40P32sUIcsA1TXXQtRX19f3fv9PjSRVYiCMmx1gLkEKLbtva7jCY4VYsg2QHXd7wZzb07Ukct2Rz7nyO8Dz1gLUQIU8IQ8Tgc2LM8yj9yd93q9gsLT1s9zOVMCtqmnwFOKan32nlj+6enGnwhRkD8PwwVykX0LtBeAlmHq7MP79n5fIw15cakOyEER6WDZYK4Fp9DLdkc/q+uEKMiNEAXcYXoW3VoOKCYZrIWoq5ftjn4WkB/1lJKU9moiPsv6Lrw1nw7AmI2qu/Mgf+7CowSeQ1Wmvf1WXBzeO/BiH5QOcgBgTXEBquvWg02qsLP2jiYAOEq/Uae+1B07DzapR4rWQlSp5QYAXNd3XbnpeBzH2y6zuZwHAEy+k1OpIepORqIAoA2f+ve/y1820rIvpxdiAlCemHeOHumPSu7Xn7p78Ui5/l0GAiHqM2UGQClKOumf+tcSBiu+nwMV60nerfCMKHieZ+tQguVxevcIVCuuludaDtrq6/u+//kgTSEqnDKD+zmBoSQtBv2tYHd0ZGn54vBP/y9WuYYE0l9PIhcIwikzuJcARUla7CNa2OZfrZAHR15T40ECOVi+1HMYhofXCGjZajoSosJMz6MSnuBeQhTkreZ+8e/WD9xpBuRi3hbNQ9Pr9XpidQD234U3BabpbyNRwNNer1f39fX19GoAjdscgZoYiQJy42SOUuk/63GoFTInCnjSnS8PBzjicBISooAnzW/UWLZHQhXkq9b6GZSChCggN7U2zkDeghOQEAXkwKNDgCedSj9CFADQstPJR4gCAFp1KfUIUQBAiy4nHiHqvOW7vQCAMkTpuYWo65QZAJTj45PIj/LE8uvOlNndwcs+BYCIAWqNEHXMMAzfL0XNvcxaGynLeV8A8JyoAWo5CsW2ZTldCVFTuc9f+jz/elr21u9N67L8em/dt5bxaR1LU+I6X5UyNB45vgBK8Gccx/9iL3TZ6Wgsf5qXzzAM319PAWpypNymZc2Xw7rX67VaTstyXwucy5BZaiCM5Uyd1i7Qqvmx38px38LJUpIA1XUayy1b4WkSGqKmzvz9fsdZQbKwFermf6/5+vrquu5347UV9s4GwRhz9bQJtEKAqlOyANV1bR40ez6Fp7l5B/rpctqR5VGHKSBtWV7+XQbr6bg6Gsznyzl6TK4ta0l7QEta7AsFqItaPGi2hISnyZEOS4Cq23QpcXJlpPHqss4EKOEJ2uwLBaiLWjxo1pwJT5NPnZZLeKS0DF0hjaLwBP/TYl8oQF3U4kGzdCU8zW1dejECxd2WoWqN8AT/tNgXthCg2r2N6AaxwtP8/691TMITORGegBYIUIksw9PyrqoztoJSjGVDDMIT0AoBKoGUo0TDMHgBMVkSnoCW6IUjW3vCeOrPcgmPpwlP8Jk6URcBKqK917PENAzD7hPM4U5rD83VUQC1cxdeJEfeBTd/1MDe06QhZ/O78Iw8wWct3JG21MI2R32ZcMs+vRJj7Wd3jhxNAe7r6+v7BcPT113Xrb4iRMhjz9aNEqEvwwYokRGoB5gAHte8856C7DL4zYPjke+zbe09fWvfV+eh3X6whREoAYrLWguEa6ON0/fmP9t7/c6np3sfbXzmn/npnYmhP996uv08KC2DpxAFv7UQJpZa6P8FKJo0DwytBcCu634FvVgBTJ2Hn1qtEy2ERgEKCpR76FPf4X+OjhLXpoX+3yRyKFCtDRLUKPcTnpRqbqva3asAcIOaQ8QnNYfHercMAHhUzeFRgAIAkjACBQCcUnOIaJm9CgAJ1XwZq2UCFAAkZASqTvYqACRkBKpOAhQAJNT6CFSt2+9BmgBAEjWPvtUZCwGAx/V9X+0IVJ1bBQA8YhmYah2FEqAAgOhqDU4TAQoAIJAABQBEV+vcp0ndWwcAPMIlPACAQEagAAD4QYACAKJzCQ8AgB8EKACAQAIUAEAgLxPmx50StV+zBoAYjEDxrdTwVPPLKgHIU7JeR4dWHvsMAI5JdglvHEcdcoGmfXZ1NGpv38ca6XJ85ctlYaB2RqD4JUWHNy1TZwpADaQcklgGJYEagJok69WMNJRnHMeo+225rJQjW10npOUq5iT/aVluHACe5hIet0gdnlJ9BgDn1dwuSzl8Kz30lr7+Nau5EQW21dwu/61542iLTjpPsS8La7MokfapPt+PMZgaprW/547enrxs5GLdHp+DlA34VrnfoaR981QZEcY+Amptr78D1BQKtv5e40wwviPlDqWoteGEUC3XhVq3+2/ohunYycHapZyQY3N5916tFRx41ryt0tbUJfhJ5Ed3fgtPIk69XfPLnoLrb1fK5Ur4ykWt9QpqJkTVI/mrXBwo583LTjn+VmLoian17YdSLE/29I11SBaguq6NTl9FeE7J5d73fTcMQ9d1Xfd6vX78bO+GDqHpn5L3P+0RouqjNb5IBeCqKUjNnwS/9/ddf3InTFKaZd1q4Yn6JbQlZyUdgQLKlXvDl/v6AXWPtNUdfYFq1X7mTr28bL0O9ho8bDkHCqhfKyGq1tGnrhOg4HHTHCjC1Nww04YWQlSN2zQxBwoeZgQK2rV2d970/fm/zy5v7WefXtkWw/IGmBrVGw0BoABrIePsHXpHwtPa9+efd/Rz1x5IXPOI05IRKAB4WOrnvK2Fo7XPuxqi9r5f22iUAAUAGaj9Ybm1bZsABQCZyHWUJvTdrGfem1saAQoA2HXk3axnwlDKwJg6nAlQAEB1Uo/mlTt2BgDwEAGKZEq+tn0Hz38CKJceDh7iCeQA5Uo2B2o++pDrXQUAAGcYgYKHuIQHUK5bAlRrj3eHI1zCAyiXVAMAEEiAAgAIlDRAmTwOANQoaYCavztHmIKfTCIHKJdLePAQk8gByiVAwUOMQAGUS4CChxiBAiiXABXI86wAAGkgkMnwxDK/hOe4AiiLABXICBSxzC/hOa4AyqLVhocYgQIolwB1kg6Pq0wiByiXAHWSSy5c5TEGAOX6+/QKAADla+3KjAB1UmsHCvGN42gkE6BQWm94iPAEUC4t+Ek6P2IwkhlGvQNyoTU6Scf3mTL67P1+P70KAJwgQJGM0YJ9wzC4Ew+gUHo4eMjr9fIsKIBC/RnH8b/YC12OPNR0KWfatpq2KZX5caC8fqq5jqTkmAJyYQQKACCQAAUAEChJgDK0DgDUzAgUyQjSANQqSYBy+zoAUDOX8AAAAhkqIhkjkQDUyiU8kjESCUCtkl/C04kCALVJPgJlNKpd9j1AG/q+//7TiuRbagSqTS1VIgDao5cDAAiULEAZeQJS0b4AT0sWoFzCgWOEAYDySDkAAIFcwgMAomnlCpRLeABANK0MoEg53EKgBqAmejVu0coZCQBtEKBIQmACoGYCFElMl+wEKYC2tDJlI9nLhHWczLVSoQBatOzzW2jzk71MuIXCY9uyMgnUAHVrLUTVvXU8Zqo4tVcggLNaaB9r3sZ6t4wsTGckNVcigFC1nmSuXW2obRsndW4VAGRqGShqCxh7UzZq2tZ6tuRG5vMAcMY8QMxvuKopWHTd+nyovu+r6j/dhXdCbQd6CiaRA/yzdnNV3/fd+/3+8e+a1N7u/+m67r+UH1BbAdaWoFNaNgbK7Z/lWSjHeL4YpVrW+Xlw6rque71eP35ek1rbuyhxdxiGbhiGH/+u2XQm8enP9Lstq6myAIRajjyN47jaL8z7zdr6jXk/UNO2GYEKVNPOXzO/Hn91303LMGrwW61nZKk5lijJ2ih83/e7gwytjER1Xfnb92ccx+gBqubOofYARXprZ6DT9+Z/z7l0/D8CFKU4E54mQlQZpIEMTAdQThOvSz6oc7cWwvfCU9dt7w+BHvJzJTx1XTuX87qu7O0zAhWgpuR8h5IrRuu2RsmeZgSK3G3Vm+Wk8aX5qNNSbcf7Wt9Q4jb+TbXgrYlytOeOivHEsbacGLl3ZrU2ifLTPIjp5/OGdf5/9hrcq7ZGyXKxDFKfRvDgDss6MgzD4fq+VHMfurZtJdZdI1AB5o12iTv7bjWPFpxp2OaNRq53qn59fXXv93v17z3LADP9/X6/kwa92qzddKGtKcPayNORUadhGH7VkVb2d+kjUclGoGpW61kBxx2t5PNjZf711GDmGKSWoWn693yd5w3/tA1TZzHN9ZjP+Yi5na/X69cZ7PKkZutnudfdreMl9/WetHpyOd8/07F+ZM5Ty+Gp68ofiRKgILG9S3vLILUMKZO1hnjt/659vfb/lpcCh2H4EZTmAWhvWU8YhqF7v98/1mn697Ije71eP3623J5lEFwLiZM7ymEtmJY0glfT8++OPoJla1tD77b79Dm1KjlEuYQXwCW8MDVfwguxNTLCfdYC6VowySkoTvYuq87/7rr1AHbVVsic7P2sJaHlLjz9VOLlPAEqQI53JeVMgFq3F6JKuMxE/nIcOQx1ZKRwy6ffTRH2Qsq65uc8XVFaiBKgAghQYWo9Dq5yHF131whwbWF2PrF/Ocl57XusuxJOhad9JYUoASqAji+MEahttdaRu7iE/tPaJPmcRzNDR4CW89NKJTwdU0qIEqACCFBhBKh1jqPrBKgwqevi1v4o5e7HGD4FO+EpTAk5QoAKUOt2pSJAbXMsnee4CuNY2xY72O3d+TqxD47LJXhvPZPNYwzgZrk0CqVqZUSD9GKFmb3jUXgq39Yz2YxABah1u1IxUrDOJbxrHFdhtFv3+BTqlX243E+UjEABxci9QaVNwlNaqcvv7Fw9AQoohst34ZRZejkFJCO04aayCi0ztQooio4hjPDUptL3ewnrn/8aAvy/vu+LaFhzInC2Zb6/S64rJRy3yUtXgwfEUkKjmhvtb3tqCFElrHf+awgVEwjClNCoQg5KD1EltI3llSpUpMSG7WklNKw5UV7tKj1E5S56ia4940YFBmLREYRRXm0rNUSVsK7R13C+swQnAHiWvjiNJBHPqBOQkvblOGVF1/18nxtxKEmgGMIAnCdExaUUgWJo+MMpM+ZKCVHTlaycT5ryLkGKlXvlpFxeTQLXlBKicqf0SCLnswbKNr34k2OUFXuEqPOUHFAcjT5cU+rjDXKi1EhChSQloypwnRB1jRIjCR0cQP7mE7WFqDBKCwDouk6ICqGkSEIlBCiHy3nhlBIAIEQFUkJAETTokJ75q8dpkQCAbyaVH6N0AIAfhKjPlAwA8IvLefsEKADgF6NP+6KXTt/3338AyIPRBEI5ZvZJOQAAgf6mHCmali3FAtyv73vtLyTSd92/gJOqormcBwBl0Xfv67vuXyEpLACAz/7GGHX6FLwMIQM8w4kxpPE3xkIEJACgJU5NSEKoBqBmAtQJwsFnLhtAHrRXkIZe7gThACiF9grSULMAAAIJUCcYEucsD5flbo41SEOAOmje8RkS56r3+/30KgBwgSRw0HQWJzwRyzAMT68CACdJAwfNg5Mh8eOUFbE4ls5x0gdpqFknaJCI4fV6Pb0KAJwkCZxQ25mwQPgMl/DCOE6BnGiRDpqHptIb8r7vf/yZvhdz+cvPirns0st/YgQKoFx19EQJLYMG++4qp7UQWBojUOfUNgIMlCnKy4RbVGqnvSV1p9T3/eXP2CrzUjtUI1AA5aorBRBsHMeoAWRa3tqfmMueW45GlTI6VdMIVOpyT3lZGOAMI1AfPPXgzOlzt4JHjHUqdeSm68L2y137r+TybNna8WFfAp/8Gcfxv6dXgvvFuKT2tFjBaHmDQMpyWXuifa77IaQs9vbFle37tI9jlF1tl4bnPL+OK3Jvo54mQFGtmi/z5PpKoTvm0sX8rFTBLxcCFFcIUPtcwqNapVX6acTnSDDKMTzdIfY+XZtPt/Z1Ksv9vbY+pR3H0AoBCjIxdZQldpg1BLontmHtDH8ems4eC2vBq5R9VOLxT5tcwgOIoJSAEsP8JpflCNraPL9WfLr5pzQu4e0ToADY1FoI4ifhaZtLeABsKrUDnY8ElRwC90by1n6299qxFkcFUzICBQAPyzXYlBqg72AECgAellNQyTXM5UaAAgC+5RTmciZmAgAEEqAAAAIJUAAAgQQoAIBAAhQAQIC+7wUoAIAQ4zgKUAAAIYxAAQCcIEABAAQSoAAAAglQAACBBCgAgEACFABAIAEKACDQ36dXIHd9ny5jjuMYtB7z35//e/mz5f9bft7e7wMAn/0Zx/G/p1ciVynDUw6EKAAI1/e9Eag94zjuhqjp58uRofnP10y/M1/+1mctf2f5GaE+bVNJjm7H2jYvy1KYBCCEEaiDaulot0JHrO1aC3spyqyWEBhD6cckQGmMQJ1Q0/yhlKNR8+XGKrMrI06ffueO+WFrIfxTMD+yzbmFyVrqB8AeASpQTZ1D7I73qY58bZ8c2U9n/99Va+WUWwg6q+T68fQ+WJZdTSdrUCMBqjEpG+S9eVwpP7M0pa3z1JE/HTBSCxmV3Jr7OJ8XGVpepQfr5baXdpxDKHOgDjoyOZz/UVbraplHN/fpJouUy4/xGSUFlK5bv5Hk080sy99b/p8j8yK35jbeVX411RnqYA7UCSoy/JO6E005qpn6hoqUlut4dJ2n8tw7yZl+9mlELNV+j3G3cS5yeY4gaQhQwCWfRj5KU+Plp/n2fNq2p7d9L7g9vW4hUo/S5VjXSto/MQhQQDQpGtCtuUmxlxt7+ZyTelTzzsvOOYaclHLZ3rvqsAAFFCN2w9hCWGphG0PcOXdrGIau67ru9XoVuR/2nuu39nUuAWrrwcmxmUR+UIlDyE8xiXydY+ga5XfcXR3IXVLse3PrPjvyJo5cHL0hIhaTyOEhNc6zIU81HGeptyHm8mt8ntfW+qcOtGf//3zkb/6z2G/cMAJ1kLPf44xArVu7hZzj1MHj1MHPlNFnJda5W+e4XV4aQGIlNuRA3QQooBg5zbmgbMJ4ne7cr+ZAAVTM5WJac9cry5zOwc2MonAn4QnSMAJ1gA6PmHRoAOWTDOBmy3eRAVAerfgBRgyIzTF1jnIjFicxnPX9BPaH16MIKhoA0HWdSeSkY5Rgn/IBKJ8ABTczoglQPi053MwIFFAK7dU2AYrojLDsUz7hNOLwDO3VNiVDVCobKTiugNxolYjOaAFAHbTn2wQoojNaAFAH7fm2/wNJgi9JkfwKpQAAAABJRU5ErkJggg==;" vertex="1" parent="1">
                    <mxGeometry x="160" y="250" width="520" height="284" as="geometry"/>
                </mxCell>
                <mxCell id="5" value="" style="curved=1;endArrow=classic;html=1;strokeColor=#FF0000;strokeWidth=5;" edge="1" parent="1">
                    <mxGeometry width="50" height="50" relative="1" as="geometry">
                        <mxPoint x="238" y="498" as="sourcePoint"/>
                        <mxPoint x="238" y="500" as="targetPoint"/>
                        <Array as="points">
                            <mxPoint x="288" y="498"/>
                            <mxPoint x="585" y="500"/>
                            <mxPoint x="655" y="500"/>
                            <mxPoint x="615" y="420"/>
                            <mxPoint x="505" y="350"/>
                            <mxPoint x="415" y="310"/>
                            <mxPoint x="345" y="300"/>
                            <mxPoint x="305" y="300"/>
                            <mxPoint x="265" y="300"/>
                            <mxPoint x="215" y="330"/>
                            <mxPoint x="195" y="400"/>
                            <mxPoint x="195" y="500"/>
                        </Array>
                    </mxGeometry>
                </mxCell>
            </root>
        </mxGraphModel>
    </diagram>
</mxfile>